<svg id="visual" viewBox="0 0 960 540" width="960" height="540" xmlns="http://www.w3.org/2000/svg" xmlns:xlink="http://www.w3.org/1999/xlink" version="1.1"><rect x="0" y="0" width="960" height="540" fill="#FFFFFF"></rect><path d="M0 332L22.8 345C45.7 358 91.3 384 137 390.2C182.7 396.3 228.3 382.7 274 372.3C319.7 362 365.3 355 411.2 352C457 349 503 350 548.8 351C594.7 352 640.3 353 686 360C731.7 367 777.3 380 823 382.5C868.7 385 914.3 377 937.2 373L960 369L960 541L937.2 541C914.3 541 868.7 541 823 541C777.3 541 731.7 541 686 541C640.3 541 594.7 541 548.8 541C503 541 457 541 411.2 541C365.3 541 319.7 541 274 541C228.3 541 182.7 541 137 541C91.3 541 45.7 541 22.8 541L0 541Z" fill="#4facf7"></path><path d="M0 380L22.8 387.3C45.7 394.7 91.3 409.3 137 411C182.7 412.7 228.3 401.3 274 404.7C319.7 408 365.3 426 411.2 431.5C457 437 503 430 548.8 419.5C594.7 409 640.3 395 686 395.3C731.7 395.7 777.3 410.3 823 415.2C868.7 420 914.3 415 937.2 412.5L960 410L960 541L937.2 541C914.3 541 868.7 541 823 541C777.3 541 731.7 541 686 541C640.3 541 594.7 541 548.8 541C503 541 457 541 411.2 541C365.3 541 319.7 541 274 541C228.3 541 182.7 541 137 541C91.3 541 45.7 541 22.8 541L0 541Z" fill="#008cff"></path><path d="M0 491L22.8 490C45.7 489 91.3 487 137 489.3C182.7 491.7 228.3 498.3 274 496.2C319.7 494 365.3 483 411.2 474.3C457 465.7 503 459.3 548.8 459.7C594.7 460 640.3 467 686 472.7C731.7 478.3 777.3 482.7 823 482.7C868.7 482.7 914.3 478.3 937.2 476.2L960 474L960 541L937.2 541C914.3 541 868.7 541 823 541C777.3 541 731.7 541 686 541C640.3 541 594.7 541 548.8 541C503 541 457 541 411.2 541C365.3 541 319.7 541 274 541C228.3 541 182.7 541 137 541C91.3 541 45.7 541 22.8 541L0 541Z" fill="#0066ff"></path></svg>