<svg id="visual" viewBox="0 0 900 600" width="900" height="600" xmlns="http://www.w3.org/2000/svg" xmlns:xlink="http://www.w3.org/1999/xlink" version="1.1"><rect x="0" y="0" width="900" height="600" fill="#002233"></rect><path d="M0 379L21.5 363C43 347 86 315 128.8 302C171.7 289 214.3 295 257.2 311.8C300 328.7 343 356.3 385.8 353.7C428.7 351 471.3 318 514.2 296.5C557 275 600 265 642.8 271.2C685.7 277.3 728.3 299.7 771.2 296.2C814 292.7 857 263.3 878.5 248.7L900 234L900 601L878.5 601C857 601 814 601 771.2 601C728.3 601 685.7 601 642.8 601C600 601 557 601 514.2 601C471.3 601 428.7 601 385.8 601C343 601 300 601 257.2 601C214.3 601 171.7 601 128.8 601C86 601 43 601 21.5 601L0 601Z" fill="#0066FF" stroke-linecap="round" stroke-linejoin="miter"></path></svg>